<svg width="373" height="78" viewBox="0 0 373 78" fill="none" xmlns="http://www.w3.org/2000/svg">
<path d="M47.52 30.984C46.304 28.744 44.544 27.048 42.24 25.896C40 24.68 37.344 24.072 34.272 24.072C28.96 24.072 24.704 25.832 21.504 29.352C18.304 32.808 16.704 37.448 16.704 43.272C16.704 49.48 18.368 54.344 21.696 57.864C25.088 61.32 29.728 63.048 35.616 63.048C39.648 63.048 43.04 62.024 45.792 59.976C48.608 57.928 50.656 54.984 51.936 51.144H31.104V39.048H66.816V54.312C65.6 58.408 63.52 62.216 60.576 65.736C57.696 69.256 54.016 72.104 49.536 74.28C45.056 76.456 40 77.544 34.368 77.544C27.712 77.544 21.76 76.104 16.512 73.224C11.328 70.28 7.264 66.216 4.32 61.032C1.44 55.848 0 49.928 0 43.272C0 36.616 1.44 30.696 4.32 25.512C7.264 20.264 11.328 16.2 16.512 13.32C21.696 10.376 27.616 8.90397 34.272 8.90397C42.336 8.90397 49.12 10.856 54.624 14.76C60.192 18.664 63.872 24.072 65.664 30.984H47.52Z" fill="url(#paint0_linear_260_1212)"/>
<path d="M72.645 50.184C72.645 44.68 73.669 39.848 75.717 35.688C77.829 31.528 80.677 28.328 84.261 26.088C87.845 23.848 91.845 22.728 96.261 22.728C100.037 22.728 103.333 23.496 106.149 25.032C109.029 26.568 111.237 28.584 112.773 31.08V23.496H129.189V77.064H112.773V69.48C111.173 71.976 108.933 73.992 106.053 75.528C103.237 77.064 99.941 77.832 96.165 77.832C91.813 77.832 87.845 76.712 84.261 74.472C80.677 72.168 77.829 68.936 75.717 64.776C73.669 60.552 72.645 55.688 72.645 50.184ZM112.773 50.28C112.773 46.184 111.621 42.952 109.317 40.584C107.077 38.216 104.325 37.032 101.061 37.032C97.797 37.032 95.013 38.216 92.709 40.584C90.469 42.888 89.349 46.088 89.349 50.184C89.349 54.28 90.469 57.544 92.709 59.976C95.013 62.344 97.797 63.528 101.061 63.528C104.325 63.528 107.077 62.344 109.317 59.976C111.621 57.608 112.773 54.376 112.773 50.28Z" fill="url(#paint1_linear_260_1212)"/>
<path d="M157.481 6.02397V77.064H141.065V6.02397H157.481Z" fill="url(#paint2_linear_260_1212)"/>
<path d="M166.114 50.184C166.114 44.68 167.138 39.848 169.186 35.688C171.298 31.528 174.146 28.328 177.73 26.088C181.314 23.848 185.314 22.728 189.73 22.728C193.506 22.728 196.802 23.496 199.618 25.032C202.498 26.568 204.706 28.584 206.242 31.08V23.496H222.658V77.064H206.242V69.48C204.642 71.976 202.402 73.992 199.522 75.528C196.706 77.064 193.41 77.832 189.634 77.832C185.282 77.832 181.314 76.712 177.73 74.472C174.146 72.168 171.298 68.936 169.186 64.776C167.138 60.552 166.114 55.688 166.114 50.184ZM206.242 50.28C206.242 46.184 205.09 42.952 202.786 40.584C200.546 38.216 197.794 37.032 194.53 37.032C191.266 37.032 188.482 38.216 186.178 40.584C183.938 42.888 182.818 46.088 182.818 50.184C182.818 54.28 183.938 57.544 186.178 59.976C188.482 62.344 191.266 63.528 194.53 63.528C197.794 63.528 200.546 62.344 202.786 59.976C205.09 57.608 206.242 54.376 206.242 50.28Z" fill="url(#paint3_linear_260_1212)"/>
<path d="M266.214 77.064L255.942 62.184L247.302 77.064H229.542L247.206 49.704L229.062 23.496H247.494L257.766 38.28L266.406 23.496H284.166L266.214 50.472L284.646 77.064H266.214Z" fill="url(#paint4_linear_260_1212)"/>
<path d="M299.228 17.928C296.348 17.928 293.98 17.096 292.124 15.432C290.332 13.704 289.435 11.592 289.435 9.09597C289.435 6.53597 290.332 4.42397 292.124 2.75997C293.98 1.03197 296.348 0.167969 299.228 0.167969C302.044 0.167969 304.347 1.03197 306.139 2.75997C307.995 4.42397 308.923 6.53597 308.923 9.09597C308.923 11.592 307.995 13.704 306.139 15.432C304.347 17.096 302.044 17.928 299.228 17.928ZM307.388 23.496V77.064H290.971V23.496H307.388Z" fill="url(#paint5_linear_260_1212)"/>
<path d="M316.02 50.184C316.02 44.68 317.044 39.848 319.092 35.688C321.204 31.528 324.052 28.328 327.636 26.088C331.22 23.848 335.22 22.728 339.636 22.728C343.412 22.728 346.708 23.496 349.524 25.032C352.404 26.568 354.612 28.584 356.148 31.08V23.496H372.564V77.064H356.148V69.48C354.548 71.976 352.308 73.992 349.428 75.528C346.612 77.064 343.316 77.832 339.54 77.832C335.188 77.832 331.22 76.712 327.636 74.472C324.052 72.168 321.204 68.936 319.092 64.776C317.044 60.552 316.02 55.688 316.02 50.184ZM356.148 50.28C356.148 46.184 354.996 42.952 352.692 40.584C350.452 38.216 347.7 37.032 344.436 37.032C341.172 37.032 338.388 38.216 336.084 40.584C333.844 42.888 332.724 46.088 332.724 50.184C332.724 54.28 333.844 57.544 336.084 59.976C338.388 62.344 341.172 63.528 344.436 63.528C347.7 63.528 350.452 62.344 352.692 59.976C354.996 57.608 356.148 54.376 356.148 50.28Z" fill="url(#paint6_linear_260_1212)"/>
<defs>
<linearGradient id="paint0_linear_260_1212" x1="5.3362" y1="77.832" x2="372.564" y2="77.832" gradientUnits="userSpaceOnUse">
<stop stop-color="#00C087"/>
<stop offset="1" stop-color="#AA68FE"/>
</linearGradient>
<linearGradient id="paint1_linear_260_1212" x1="5.3362" y1="77.832" x2="372.564" y2="77.832" gradientUnits="userSpaceOnUse">
<stop stop-color="#00C087"/>
<stop offset="1" stop-color="#AA68FE"/>
</linearGradient>
<linearGradient id="paint2_linear_260_1212" x1="5.3362" y1="77.832" x2="372.564" y2="77.832" gradientUnits="userSpaceOnUse">
<stop stop-color="#00C087"/>
<stop offset="1" stop-color="#AA68FE"/>
</linearGradient>
<linearGradient id="paint3_linear_260_1212" x1="5.3362" y1="77.832" x2="372.564" y2="77.832" gradientUnits="userSpaceOnUse">
<stop stop-color="#00C087"/>
<stop offset="1" stop-color="#AA68FE"/>
</linearGradient>
<linearGradient id="paint4_linear_260_1212" x1="5.3362" y1="77.832" x2="372.564" y2="77.832" gradientUnits="userSpaceOnUse">
<stop stop-color="#00C087"/>
<stop offset="1" stop-color="#AA68FE"/>
</linearGradient>
<linearGradient id="paint5_linear_260_1212" x1="5.3362" y1="77.832" x2="372.564" y2="77.832" gradientUnits="userSpaceOnUse">
<stop stop-color="#00C087"/>
<stop offset="1" stop-color="#AA68FE"/>
</linearGradient>
<linearGradient id="paint6_linear_260_1212" x1="5.3362" y1="77.832" x2="372.564" y2="77.832" gradientUnits="userSpaceOnUse">
<stop stop-color="#00C087"/>
<stop offset="1" stop-color="#AA68FE"/>
</linearGradient>
</defs>
</svg>
