<svg xmlns="http://www.w3.org/2000/svg" xmlns:xlink="http://www.w3.org/1999/xlink" viewBox="0 0 256 256"><defs><style>.a{fill:#1E1C35;}.b{fill:url(#a);}</style><linearGradient id="a" x1="196.75" y1="60.83" x2="62.91" y2="194.67" gradientUnits="userSpaceOnUse"><stop offset="0" stop-color="#00c087"/><stop offset="1" stop-color="#aa68fe"/></linearGradient></defs><title>favicon</title><path class="a" d="M128,0h0A128,128,0,0,1,256,128h0A128,128,0,0,1,128,256h0A128,128,0,0,1,0,128H0A128,128,0,0,1,128,0Z"/><path class="b" d="M224,0l14.71,17.29L256,32,238.71,46.71,224,64,209.29,46.71,192,32l17.29-14.71ZM32,192l14.71,17.29L64,224,46.71,238.71,32,256,17.29,238.71,0,224l17.29-14.71ZM153.38,77.83a34.26,34.26,0,0,1,15.17,14.62h52.14Q213,62.66,189,45.83,165.24,29,130.48,29q-28.68,0-51,12.69a89.16,89.16,0,0,0-35,35Q32,99.07,32,127.76t12.41,51a91.58,91.58,0,0,0,35,35q22.62,12.4,51.31,12.41,24.27,0,43.59-9.38a92.41,92.41,0,0,0,31.72-24.55A91.37,91.37,0,0,0,224,159.48V115.62H121.38v34.76h59.86q-5.52,16.55-17.65,25.38-11.86,8.82-29.24,8.83-25.38,0-40-14.9Q80,154.51,80,127.76q0-25.11,13.79-40,13.8-15.18,36.69-15.17Q143.73,72.59,153.38,77.83Z"/></svg>