<svg width="254" height="400" viewBox="0 0 254 400" fill="none" xmlns="http://www.w3.org/2000/svg">
<path d="M127.711 0C165.806 0 196.246 9.96884 219.032 29.9065C242.174 49.8442 253.745 77.9706 253.745 114.286C253.745 147.753 242.708 173.921 220.634 192.79C198.917 211.304 170.078 220.739 134.119 221.095L131.449 261.148H51.342L48.6718 161.816H80.7145C108.129 161.816 128.957 158.433 143.198 151.669C157.795 144.904 165.094 132.621 165.094 114.82C165.094 102.359 161.711 92.5679 154.947 85.4473C148.182 78.3267 138.747 74.7664 126.642 74.7664C113.825 74.7664 103.856 78.5047 96.7359 85.9813C89.6153 93.1019 86.055 102.893 86.055 115.354H0.0736614C-0.638399 93.636 3.81198 74.0543 13.4248 56.6088C23.3936 39.1633 37.9909 25.4562 57.2165 15.4873C76.7982 5.16245 100.296 0 127.711 0ZM92.4635 400C76.4421 400 63.269 395.372 52.9441 386.115C42.9753 376.502 37.9909 364.753 37.9909 350.868C37.9909 336.627 42.9753 324.7 52.9441 315.087C63.269 305.474 76.4421 300.668 92.4635 300.668C108.129 300.668 120.946 305.474 130.915 315.087C141.24 324.7 146.402 336.627 146.402 350.868C146.402 364.753 141.24 376.502 130.915 386.115C120.946 395.372 108.129 400 92.4635 400Z" fill="url(#paint0_linear_201_1262)"/>
<defs>
<linearGradient id="paint0_linear_201_1262" x1="254" y1="-8.48745e-05" x2="-0.000223375" y2="400" gradientUnits="userSpaceOnUse">
<stop stop-color="#00C087"/>
<stop offset="1" stop-color="#AA68FE"/>
</linearGradient>
</defs>
</svg>
